<svg xmlns="http://www.w3.org/2000/svg" fill-rule="evenodd" clip-rule="evenodd" image-rendering="optimizeQuality" shape-rendering="geometricPrecision" text-rendering="geometricPrecision" viewBox="0 0 256 256"><linearGradient id="a" x1="217.5" x2="139.5" y1="3.5" y2="235.5" gradientTransform="matrix(.99468 0 0 .99577 1.179 9.006)" gradientUnits="userSpaceOnUse"><stop offset="0" stop-color="#eb7461"/><stop offset="1" stop-color="#cc3135"/></linearGradient><path fill="#fafafa" stroke="#000" stroke-linecap="square" d="M36 12h184v232H36z"/><path fill="url(#a)" d="M150.87 12.492c-22.465 21.158-46.183 36.503-70.621 52.775 9.068 2.012 18.019 4.004 26.855 5.975 21.432-16.624 41.842-33.497 59.184-51.78a198.65 198.65 0 0 0-5.47 22.903 252.029 252.029 0 0 0-3.98 28.877v.002a500.168 500.168 0 0 0-2.984 36.842c1.328-9.957 0 0 .004 0-.815 24.233-1.988 43.413-1.988 65.72-1.039 25.67-.994 45.235-.994 69.706h68.633l-.002-87.627c-1.089-6.355-2.4-13.278-3.979-18.92v-.002a237.99 237.99 0 0 1-5.966-46.801l-.006-.006c-.234-12.968.1-25.91.996-38.828a340.09 340.09 0 0 1 6.963-38.836H150.87zM80.251 65.269a325.18 325.18 0 0 1-43.766 19.914v23.898c25.429-8.242 50.295-20.854 70.621-37.838-9.376-2.09-18.865-4.201-26.855-5.974zm-43.762 74.682v22.902c17.956 7.991 33.871 18.945 47.744 32.861h.004c14.28 13.675 26.618 30.271 35.547 47.797h20.154c-19.256-44.505-65.814-82.093-103.45-103.56z"/></svg>