<svg height="16" width="16" xmlns="http://www.w3.org/2000/svg"><path d="m3-.002c-.554 0-1 .446-1 1-.554 0-1 .446-1 1h14c0-.554-.446-1-1-1h-7c0-.554-.446-1-1-1zm-1.5 3c-.831 0-1.5.62-1.5 1.389v7.223c0 .77.669 1.388 1.5 1.388h2.508c.002-1.168.003-2.283 0-4.033.016-.897-.032-1.823.031-2.717.09-.72.75-1.257 1.465-1.25h6.992c.773-.028 1.438.616 1.496 1.375.014 2.691.004 4.504 0 6.625h.508c.831 0 1.5-.619 1.5-1.388v-7.223c0-.77-.669-1.389-1.5-1.389zm5.004 3.002c-.715-.007-1.376.53-1.465 1.25-.063.894-.015 1.82-.031 2.717.005 2.887-.019 1.768 0 4.654.057.724.67 1.344 1.404 1.375 3.056.007 2.122.002 5.178 0 .82-.005 1.432-.767 1.402-1.562-.005-3.68.019-3.379 0-7.059-.058-.76-.723-1.403-1.496-1.375zm.998 1.998c2.362.007.728-.023 3.09 0 .496.106.395.686.404 1.063v4.435c.003.495-.535.532-.904.5-2.228-.007-.455.024-2.682 0-.496-.105-.397-.685-.406-1.062v-4.436a.5.5 0 0 1 .498-.5z" fill="#404040"/></svg>