<svg height="16" viewBox="0 0 16 16" width="16" xmlns="http://www.w3.org/2000/svg"><path d="m3.4999999.99866027c-.71602-.007-1.37918.52954993-1.46875 1.24999993-.0636.8944-.01495 1.82091-.03125 2.71875.005 2.8888298-.0186 5.7678598 0 8.6562498.057.72367.67162 1.34406 1.40625 1.375 3.0615805.007 6.1258512.002 9.1875001 0 .822171-.005 1.43564-.76713 1.40625-1.5625-.005-3.68243.0186-7.3805098 0-11.0624998-.0578-.75976-.725729-1.40371993-1.5-1.37499993zm1 1.99999993c2.3668405.007 4.7277607-.0236 7.0937501 0 .497201.10584.397581.68505.40625 1.0625v8.4374998c.003.49499-.536299.53206-.90625.5-2.2316194-.007-4.4567296.0236-6.6875001 0-.4972-.10584-.39758-.68505-.40625-1.0625v-8.4374998c-.006-.26876.23115-.50647.5-.5zm3.4921877 2c-.554 0-1.0000002.013937-1.0000002.03125v1.96875h-1.96875c-.017313 0-.03125.4459998-.03125.9999998s.013937 1 .03125 1h1.96875v1.96875c0 .01731.4460002.03125 1.0000002.03125s1-.01394 1-.03125v-1.96875h1.9687504c.01731 0 .03125-.446.03125-1s-.01394-.9999998-.03125-.9999998h-1.9687504v-1.96875c0-.017313-.446-.03125-1-.03125z" fill="#404040"/></svg>