<svg height="16" viewBox="0 0 16 16" width="16" xmlns="http://www.w3.org/2000/svg"><path d="m8 .00390625c-1.1046 0-2 .89543-2 1.99999995h-3c-1 0-1 1-1 1v10.9999998c0 1 1 1 1 1h10s1 0 1-1v-10.9999998c0-1-1-1-1-1h-3c0-.1380699-.00505-.2760499-.03125-.40625-.18649-.91136995-1.00215-1.59374995-1.96875-1.59374995zm0 .99999995c.41421 0 .75444.2660801.90625.625.0506.11964.09375.2369301.09375.375 0 .5522801-.44771 1-1 1s-1-.4477199-1-1c0-.55228.44771-1 1-1zm-4 3h1v1h6v-1h1v8.9999998h-8z" fill="#404040"/></svg>