<svg height="16" viewBox="0 0 16 16" width="16" xmlns="http://www.w3.org/2000/svg"><path d="m4.4980469 2.0078125c-1.379787.001073-2.4980469 1.1199622-2.4980469 2.5 0 1.3807 1.1193 2.5 2.5 2.5.44608 0 .85613-.13902 1.21875-.34375l1.96875 1.84375-1.96875 1.8437495c-.36-.204999-.7707031-.34375-1.2207031-.34375-1.3807 0-2.5 1.119301-2.5 2.5 0 1.3807 1.1193 2.5 2.5 2.5s2.5-1.1193 2.5-2.5c0-.22916-.03605-.44541-.09375-.65625l2.125-2.0624995 4.4687501 4.2187495h1.5v-1l-8.0937501-7.8437495c.0578-.21084.09375-.42709.09375-.65625 0-1.3800378-1.1182599-2.498927-2.4980469-2.5zm9.0019531 1-3.9375 3.71875 1.3125 1.28125 4.125-4v-1zm-9 .5c.55228 0 1 .44772 1 1s-.44772 1-1 1-1-.44772-1-1 .44772-1 1-1zm0 7.9999995c.55228 0 1 .44772 1 1 0 .552281-.44772 1-1 1s-1-.447719-1-1c0-.55228.44772-1 1-1z" fill="#404040"/></svg>