<svg height="16" width="16" xmlns="http://www.w3.org/2000/svg"><path d="M7.999 1.977V11H11c.938 0 1.769-.373 2.299-.959s.765-1.337.756-2.066a3.077 3.077 0 0 0-.79-2.043c-.53-.577-1.349-.955-2.269-.955H9.995v-3zm-5.994 1L2 5h3c0 .351 0 .712.005.994H4C2.285 5.994.97 7.12.946 8.478c-.012.68.306 1.363.862 1.823C2.363 10.76 3.123 11 4 11h3.004V5.07c0-1.17-.887-2.082-2.084-2.082zm7.994 4H11c.422 0 .625.125.787.302.162.177.264.447.268.723.004.276-.089.53-.24.697C11.663 8.867 11.46 9 11 9H9.999zM4 7.994h1.004V9H4c-.52 0-.794-.136-.92-.24-.126-.105-.136-.174-.135-.246.003-.144.085-.52 1.055-.52zm-1.49 3.799L.155 14.146c-.471.473.238 1.18.71.707l1.646-1.646 2 2 2-2 2 2 2-2 2 2 2.353-2.354c.472-.472-.237-1.18-.709-.707l-1.644 1.647-2-2-2 2-2-2-2 2z" fill="#404040"/></svg>