<svg height="16" width="16" xmlns="http://www.w3.org/2000/svg"><path d="m7.999 1.977v9.023h3.001c.938 0 1.769-.373 2.299-.959s.765-1.337.756-2.066a3.077 3.077 0 0 0 -.79-2.043c-.53-.577-1.349-.955-2.269-.955h-1.001v-3zm-5.994 1-.005 2.023h3c0 .351 0 .712.005.994h-1.005c-1.715 0-3.03 1.126-3.054 2.484-.012.68.306 1.363.862 1.823.555.459 1.315.699 2.192.699h3.004v-5.93c0-1.17-.887-2.082-2.084-2.082zm7.994 4h1.001c.422 0 .625.125.787.302s.264.447.268.723-.089.53-.24.697c-.152.168-.355.301-.815.301h-1.001zm-5.999 1.017h1.004v1.006h-1.004c-.52 0-.794-.136-.92-.24-.126-.105-.136-.174-.135-.246.003-.144.085-.52 1.055-.52zm-1.49 3.799-2.355 2.353c-.471.473.238 1.18.71.707l1.646-1.646 2 2 2-2 2 2 2-2 2 2 2.353-2.354c.472-.472-.237-1.18-.709-.707l-1.644 1.647-2-2-2 2-2-2-2 2z" fill="#404040"/></svg>