<svg xmlns="http://www.w3.org/2000/svg" fill-rule="evenodd" clip-rule="evenodd" image-rendering="optimizeSpeed" shape-rendering="geometricPrecision" text-rendering="geometricPrecision" viewBox="0 0 1024 1024"><path fill="#fff" stroke="#000" stroke-width="4" d="m141 45.5 742 1v932H141Z"/><g fill="#4d5965"><path d="M265 344a40.7 40.7 0 0 0-40.5 40.5v255A40.7 40.7 0 0 0 265 680h494a40.7 40.7 0 0 0 40.5-40.5v-255A40.7 40.7 0 0 0 759 344Zm0 31h494c5.4 0 9.5 4 9.5 9.5v255c0 5.4-4 9.5-9.5 9.5H265c-5.4 0-9.5-4-9.5-9.5v-255c0-5.4 4-9.5 9.5-9.5z"/><path d="M613.5 420.5h48v89h54l-78 94-79-94h55zm-160 0h48v176h-48v-102l-48 49-49-49v102h-48v-176h48l49 53z"/></g></svg>
