<svg height="16" width="16" xmlns="http://www.w3.org/2000/svg"><path d="m3.503.999c-.716-.007-1.38.53-1.469 1.25-.063.894-.015 1.82-.031 2.718.005 2.89-.019 5.768 0 8.657.057.723.672 1.344 1.406 1.375 3.062.007 6.126.002 9.188 0 .822-.005 1.435-.767 1.406-1.563v-3.435c0-1.334-.814-2.276-1.553-2.645-.738-.37-1.447-.355-1.447-.355h-1.586l.283-.284c.003-.003.007-.005.01-.01.187-.186.293-.441.293-.706v-1.001h-1a1 1 0 0 0 -.707.293l-2.707 2.707 2.697 2.697a1 1 0 0 0 .717.303h1v-1a1 1 0 0 0 -.293-.707l-.293-.293h1.586s.291.013.553.144c.261.13.447.189.447.856v2.498c.003.495-.536.532-.906.5-2.232-.007-4.457.023-6.688 0-.497-.106-.397-.685-.406-1.063v-8.435a.501.501 0 0 1 .5-.5c2.367.007 4.728-.024 7.094 0 .497.106.397.685.406 1.062v.94c-.02 1.352 2.019 1.352 2 0v-1.002c0-.543.003-1.086 0-1.627-.058-.76-.726-1.404-1.5-1.375z" fill="#404040"/></svg>