<svg height="16" width="16" xmlns="http://www.w3.org/2000/svg"><path d="m3.5.999c-.716-.007-1.38.53-1.469 1.25-.063.894-.015 1.82-.031 2.718.005 2.89-.019 5.768 0 8.657.057.723.672 1.344 1.406 1.375 3.062.007 6.126.002 9.188 0 .822-.005 1.435-.767 1.406-1.563-.005-3.682.019-7.38 0-11.062-.058-.76-.726-1.404-1.5-1.375zm1 2c2.367.007 4.728-.024 7.094 0 .497.106.397.685.406 1.062v8.439c.003.495-.536.532-.906.5-2.232-.007-4.457.023-6.688 0-.497-.106-.397-.685-.406-1.063v-8.437a.501.501 0 0 1 .5-.5zm3.492 2c-.554 0-1 .014-1 .03v1.971h-1.969c-.017 0-.03.446-.03 1s.013 1 .03 1h1.97v1.968c0 .018.445.032 1 .032s1-.014 1-.032v-1.968h1.968c.017 0 .031-.446.031-1s-.014-1-.031-1h-1.969v-1.97c0-.016-.446-.03-1-.03z" fill="#404040"/></svg>