<svg xmlns="http://www.w3.org/2000/svg" fill-rule="evenodd" clip-rule="evenodd" image-rendering="optimizeQuality" shape-rendering="geometricPrecision" text-rendering="geometricPrecision" viewBox="0 0 256 256"><path fill="#fafafa" stroke="#000" d="M36 12h184v232H36z"/><path fill="#f5772b" d="m156 104 34 20c2 3 2 5 0 8a1722 1725 0 0 0-34 20 13 13 0 0 1 1-9 502 503 0 0 0 25-15 502 503 0 0 0-25-15 20 20 0 0 1-1-9zm-57 0a10 10 0 0 1 0 9 503 504 0 0 0-25 15 503 504 0 0 0 25 15 13 13 0 0 1 1 9 1721 1725 0 0 0-34-20c-2-3-2-5 0-8a822 823 0 0 0 33-20zm12 60h8l26-72h-8z"/></svg>