<svg xmlns="http://www.w3.org/2000/svg" fill-rule="evenodd" clip-rule="evenodd" image-rendering="optimizeQuality" shape-rendering="geometricPrecision" text-rendering="geometricPrecision" viewBox="0 0 1024 1024"><path fill="#fff" stroke="#000" stroke-width="4" d="m141 45.5 742 1v932H141Z"/><path fill="none" stroke="#4d5965" stroke-linecap="square" stroke-width="31" d="M265 359.5h494a25 25 0 0 1 25 25v255a25 25 0 0 1-25 25H265a25 25 0 0 1-25-25v-255a25 25 0 0 1 25-25z"/><path fill="#4d5966" d="M613.5 420.5h48v89h54l-78 94-79-94h55zm-160 0h48v176h-48v-102l-48 49-49-49v102h-48v-176h48l49 53z"/></svg>