<svg clip-rule="evenodd" fill-rule="evenodd" height="1024" image-rendering="optimizeQuality" shape-rendering="geometricPrecision" text-rendering="geometricPrecision" width="1024" xmlns="http://www.w3.org/2000/svg"><filter id="a" color-interpolation-filters="sRGB" height="1.022" width="1.027" x="-.01" y="-.008"><feFlood flood-opacity=".498" result="flood"/><feComposite in="flood" in2="SourceGraphic" operator="in" result="composite1"/><feGaussianBlur in="composite1" result="blur" stdDeviation="3"/><feOffset dx="6" dy="6" result="offset"/><feComposite in="SourceGraphic" in2="offset" result="composite2"/></filter><path d="M140.5 12.5c247.306.997 494.639 1.33 742 1v932h-742v-933z" fill="#fefefe" filter="url(#a)"/><path d="M256.5 311.5c169-.167 338 0 507 .5 17.294 2.954 28.794 12.787 34.5 29.5.667 90.333.667 180.667 0 271-3.975 21.305-16.808 32.805-38.5 34.5-166.667.667-333.333.667-500 0-17.263-2.919-28.763-12.753-34.5-29.5l-1-10c-.667-87.667-.667-175.333 0-263 4.336-17.502 15.169-28.502 32.5-33z" fill="#4d5965"/><path d="M259.5 343.5c168.747-.497 337.414.003 506 1.5l1.5 1.5c.667 88.333.667 176.667 0 265a11.532 11.532 0 0 1-4.5 3.5 63220.89 63220.89 0 0 1-503 0c-3.389-2.619-4.889-6.119-4.5-10.5a16121.19 16121.19 0 0 1 0-254c.145-3.293 1.645-5.626 4.5-7z" fill="#fefefd"/><path d="M311.5 391.5c16.03-.022 32.155-.025 47.983-.026 15.93 17.423 31.947 35.116 48.017 52.026 15.72-16.95 31.938-34.707 47.293-52.059 16.457-.005 32.349-.008 48.707.06v176h-48c.333-34.34.558-68.255.728-102.697-15.667 16.667-33.061 33.029-48.728 49.696-15.639-16.64-32.646-32.544-48.34-49.237.066 34.37-.23 67.77.259 102.165l-47.919.072zm304 0h48v88l54.859.092C639.5 574.5 665.548 543.026 639.5 574.5c-78.29-94.56-52.422-62.817-78.29-94.56l54.29-.44z" fill="#4d5965"/></svg>