<?xml version="1.0" encoding="UTF-8" standalone="no"?>
<svg
   fill-rule="evenodd"
   clip-rule="evenodd"
   image-rendering="optimizeQuality"
   shape-rendering="geometricPrecision"
   text-rendering="geometricPrecision"
   viewBox="0 0 1024 1024"
   version="1.1"
   id="svg8"
   sodipodi:docname="Icon.svg"
   inkscape:version="1.1.2 (0a00cf5339, 2022-02-04)"
   xmlns:inkscape="http://www.inkscape.org/namespaces/inkscape"
   xmlns:sodipodi="http://sodipodi.sourceforge.net/DTD/sodipodi-0.dtd"
   xmlns="http://www.w3.org/2000/svg"
   xmlns:svg="http://www.w3.org/2000/svg">
  <defs
     id="defs12" />
  <sodipodi:namedview
     id="namedview10"
     pagecolor="#505050"
     bordercolor="#eeeeee"
     borderopacity="1"
     inkscape:pageshadow="0"
     inkscape:pageopacity="0"
     inkscape:pagecheckerboard="0"
     showgrid="false"
     inkscape:zoom="0.70214844"
     inkscape:cx="511.2879"
     inkscape:cy="463.57719"
     inkscape:window-width="1920"
     inkscape:window-height="1012"
     inkscape:window-x="0"
     inkscape:window-y="0"
     inkscape:window-maximized="1"
     inkscape:current-layer="svg8" />
  <path
     fill="#ffffff"
     stroke="#afafaf"
     stroke-width="4"
     d="m 141,45.501349 742,1 V 978.50135 H 141 Z"
     id="path2"
     style="stroke:#000000;stroke-opacity:1" />
  <path
     fill="none"
     stroke="#4d5965"
     stroke-linecap="square"
     stroke-width="31"
     d="m 265,359.5 h 494 a 25,25 0 0 1 25,25 v 255 a 25,25 0 0 1 -25,25 H 265 a 25,25 0 0 1 -25,-25 v -255 a 25,25 0 0 1 25,-25 z"
     id="path4" />
  <path
     fill="#4d5966"
     d="m 613.5,420.5 h 48 v 89 h 54 l -78,94 -79,-94 h 55 z m -160,0 h 48 v 176 h -48 v -102 l -48,49 -49,-49 v 102 h -48 v -176 h 48 l 49,53 z"
     id="path6" />
</svg>
