<svg height="16" viewBox="0 0 16 16" width="16" xmlns="http://www.w3.org/2000/svg"><path d="m1.5072909.00092799c-.71605995-.007-1.37924995.529797-1.46882995 1.24992801-.0636.894004-.0149 1.82115-.0312 2.718593.005 2.887552-.0186 5.764732 0 8.651844.057.723349.67166 1.343995 1.40631995 1.374921.22643.000517.38919-.000393.60551 0l-.0195.0039 5.00027 1.999884v-2.00379c.83545-.00076 1.62881.000635 2.60169 0 .8222201-.005 1.4357201-.767392 1.4063301-1.56241-.00059-.478296-.00011-.956307 0-1.435464v-.997989-.002c.0191-1.351723-2.0192101-1.351723-2.0001101 0v.002.937445.560515c.003.49477-.53633.530063-.9063.498018-.43224-.0014-.73027-.000798-1.10161 0v-7.995632l-4.76783-1.90614c.0812-.05594.17364-.09619.2754-.09374h4.49243c.51949.00038.97978-.0062 1.60164 0 .49723.105793.3976.685155.40627 1.062438v.939399c-.0191 1.351722 2.0192401 1.351722 2.0001101 0v-.999942c.00093-.542339.003-1.085593 0-1.626859-.0578-.75942401-.72577-1.40362801-1.5000801-1.37492101zm10.4927401 3.99976901v.999942c.00004.265195.10542.519501.29298.706991l.29299.292952h-3.5861301c.00006.999982 0 .999982 0 1.999884h3.5861301l-.28323.283187c-.003.003-.007.0058-.01.0098-.18684.186799-.29294.441806-.29298.70699v.999943h1.00005c.26521-.00004.51956-.105413.70707-.292952l2.29309-2.706875-2.28332-2.69711c-.18828-.193519-.44682-.302717-.71684-.302717zm-8.0004201 3.999769h2.0001v.999942h-2.0001z" fill="#dadada" fill-rule="evenodd"/></svg>