<svg height="16" viewBox="0 0 16 16" width="16" xmlns="http://www.w3.org/2000/svg"><path d="m3.5029143.99866015c-.71602-.007-1.37918.52955015-1.46875 1.25000015-.0636.8944-.01495 1.82091-.03125 2.71875.005 2.88883-.0186 5.7678597 0 8.6562497.057.72367.67162 1.34406 1.40625 1.375 3.06158.007 6.12585.002 9.1874997 0 .82217-.005 1.43564-.76713 1.40625-1.5625-.0011-.810733-.000916-1.623636 0-2.435547v-1c0-1.3332999-.814254-2.2753309-1.552734-2.6445308-.73852-.36926-1.447266-.3554688-1.447266-.3554688h-1.5859372l.2832031-.2832031c.003-.003.00677-.00577.00977-.00977.1868256-.1868057.2929241-.4418269.2929641-.7070269v-1h-.9999997c-.2652.00004-.5195312.1054188-.7070312.2929688l-2.7070313 2.7070309 2.6972656 2.6972659c.18827.19354.4467969.302734.7167969.302734h.9999997v-1c-.00004-.2651999-.1054184-.5195309-.2929685-.7070309l-.2929687-.292969h1.5859372s.291254.0138.552734.144532c.26149.13074.447266.188798.447266.8554679v1 1.498047c.003.49499-.5363.53206-.90625.5-2.2316197-.007-4.4567297.0236-6.6874997 0-.4972-.10584-.39758-.68505-.40625-1.0625v-8.4374997c-.006-.26876.23115-.50647.5-.5 2.36684.007 4.72776-.0236 7.0937497 0 .4972.10584.39758.68505.40625 1.0625v.9394531c-.0191 1.35232 2.01913 1.35232 2 0v-1c.000926-.542578.0027-1.0854458 0-1.6269531-.0578-.75976-.72573-1.40372015-1.5-1.37500015z" fill="#dadada"/></svg>