<svg height="16" viewBox="0 0 16 16" width="16" xmlns="http://www.w3.org/2000/svg"><path d="m3-.00165143c-.554 0-1 .446-1 1-.554 0-1 .44600003-1 1.00000003h1 13c0-.554-.446001-1.00000003-1-1.00000003h-7c0-.554-.446-1-1-1zm-1.5 3.00000003c-.831 0-1.5.6192276-1.5 1.3886719v7.2226565c0 .769445.669 1.388672 1.5 1.388672h2.5078125c.00222-1.168738.00302-2.283709 0-4.0332035.01627-.897364-.032232-1.8228699.03125-2.7167969.089403-.720078.7501559-1.257 1.4648438-1.25h6.9921877c.77283-.028705 1.438404.615633 1.496094 1.375.01358 2.6908162.0038 4.5033524 0 6.6250004h.507812c.831 0 1.5-.619227 1.5-1.388672v-7.2226565c0-.7694443-.669-1.3886719-1.5-1.3886719zm5.0039063 3.0019531c-.7146879-.007-1.3754404.5299217-1.4648438 1.25-.063482.8939263-.01498 1.8194325-.03125 2.7167969.00499 2.8872994-.018565 1.7674364 0 4.6542964.056894.723287.6710336 1.344066 1.4042969 1.375 3.0558843.007 2.1217799.002 5.1777346 0 .82064-.005 1.431679-.767562 1.402344-1.5625-.005-3.680479.01857-3.378553 0-7.0585933-.05769-.7593675-.723264-1.4037048-1.496094-1.375zm.9980469 1.9980469c2.3624367.007.7282556-.023587 3.0898438 0 .496275.1057739.395643.68525.404297 1.0625v4.4355464c.003.494718-.535036.532043-.904297.5-2.227469-.007-.4550207.02359-2.6816407 0-.496275-.105794-.3975961-.68526-.40625-1.0625v-4.4355464c-.00599-.2686276.2296971-.5064766.4980469-.5z" fill="#dadada"/></svg>