<svg height="16" viewBox="0 0 16 16" width="16" xmlns="http://www.w3.org/2000/svg"><path d="m8 1c-1.79145 0-3.5823688.6839313-4.9492188 2.0507812-2.73369995 2.7337-2.73369995 7.1647378 0 9.8984378 2.7337 2.7337 7.1647378 2.7337 9.8984378 0s2.7337-7.1647378 0-9.8984378c-1.36685-1.3668499-3.157769-2.0507812-4.949219-2.0507812zm-.0722656 2a5 5 0 0 1 3.6074216 1.4648438 5 5 0 0 1 0 7.0703122 5 5 0 0 1 -7.0703122 0 5 5 0 0 1 0-7.0703122 5 5 0 0 1 3.4628906-1.4648438zm-.9316406 1v.1328125 4.28125l1.7070312 1.7070315.6152344.615234.0917968.091797.7070318-.707031.707031-.7070315-.09375-.09375-.613281-.6132813-1.1210942-1.1210937v-3.453125-.1328125z" fill="#dadada"/></svg>