<svg height="16" viewBox="0 0 16 16" width="16" xmlns="http://www.w3.org/2000/svg"><path d="m7.9989277 1.9765313v9.0234377h3.0019543c.93855 0 1.768828-.372534 2.298828-.958984.53-.58644.765739-1.336606.755859-2.066406-.01-.7298202-.262222-1.4657697-.789062-2.0429697-.53-.5769999-1.349531-.955078-2.269531-.955078h-1.0019543v-3zm-5.9941407 1-.00479 2.0234375h3.0000005c0 .3511268 0 .7123535.0048.9941405h-1.0039168c-1.7159001 0-3.03008804 1.1254745-3.05468804 2.4843747-.0123.67945.30582864 1.362966.86132864 1.822266.5555.459271 1.3153593.699219 2.1933594.699219h3.003906v-5.9296877c0-1.1712-.887134-2.0820313-2.0839841-2.0820313zm7.9941407 4h1.0019543c.42179 0 .625509.1256935.787109.3027335.161601.17705.263838.4468472.267578.7226572.004.27581-.0886.529485-.240234.697265-.15162.167771-.355693.300782-.814453.300782h-1.0019543zm-5.998047 1.0175787h1.0039059v1.005859h-1.0039059c-.5194101 0-.7937919-.135944-.9199219-.240234-.12614-.10428-.1360656-.174134-.1347657-.246094.003-.14393.084891-.519531 1.0546876-.519531zm-1.4902344 3.798827-2.35546864 2.353515c-.471355.472657.23763 1.179689.708984.707032l1.64648464-1.646484 2.0000003 2 2.0000001-2 2 2 2.0000003-2 2 2 2.353516-2.353515c.471354-.472656-.23763-1.179688-.708984-.707032l-1.644532 1.646484-2-1.999999-2.0000003 1.999999-2-1.999999-2.0000001 1.999999z" fill="#dadada"/></svg>