<svg height="16" width="16" xmlns="http://www.w3.org/2000/svg"><path d="m6.5 1.004c-3.029 0-5.5 2.475-5.5 5.5 0 1.062.286 2.063.813 2.906l1.469-1.471c-.194-.436-.282-.926-.282-1.437 0-1.945 1.553-3.5 3.5-3.5a3.4 3.4 0 0 1 1.406.313l.75-.75.094-.092.625-.656c-.84-.518-1.819-.812-2.869-.812h-.006zm5.111.998a.71.71 0 0 0 -.504.213l-1.396 1.404 2.672 2.674 1.404-1.396a.71.71 0 0 0 0-1.012l-1.67-1.67c-.141-.141-.324-.213-.506-.213zm-2.861 2.578-6.75 6.75v2.672h2.672l6.752-6.75zm2.375 5.111-1.437 1.406 3.625 3.625c.958.938 2.365-.5 1.406-1.437z" fill="#404040"/></svg>