<svg height="16" width="16" xmlns="http://www.w3.org/2000/svg"><path d="M6.5 1.004c-3.029 0-5.5 2.475-5.5 5.5 0 1.062.286 2.063.813 2.906l1.469-1.471A3.527 3.527 0 0 1 3 6.502c0-1.945 1.553-3.5 3.5-3.5a3.4 3.4 0 0 1 1.406.313l.75-.75.094-.092.625-.656a5.437 5.437 0 0 0-2.869-.812H6.5zm5.111.998a.71.71 0 0 0-.504.213L9.711 3.619l2.672 2.674 1.404-1.396a.71.71 0 0 0 0-1.012l-1.67-1.67a.716.716 0 0 0-.506-.213zM8.75 4.58 2 11.33v2.672h2.672l6.752-6.75zm2.375 5.111-1.437 1.406 3.625 3.625c.958.938 2.365-.5 1.406-1.437z" fill="#404040"/></svg>