<svg clip-rule="evenodd" fill-rule="evenodd" image-rendering="optimizeQuality" shape-rendering="geometricPrecision" text-rendering="geometricPrecision" viewBox="0 0 1024 1024" xmlns="http://www.w3.org/2000/svg"><path d="m141 13 742 1v932h-742z" fill="#fff"/><path d="m265 326h494a25 25 45 0 1 25 25v255a25 25 135 0 1 -25 25h-494a25 25 45 0 1 -25-25v-255a25 25 135 0 1 25-25z" fill="none" stroke="#4d5965" stroke-linecap="square" stroke-width="31"/><path d="m616 391h48v89h54l-78 94-79-94h55zm-160 0h48v176h-48v-102l-48 49-49-49v102h-48v-176h48l49 53z" fill="#4d5965"/></svg>